<mxfile host="app.diagrams.net" modified="2022-03-09T02:06:03.140Z" agent="5.0 (Macintosh; Intel Mac OS X 10_15_7) AppleWebKit/537.36 (KHTML, like Gecko) Chrome/98.0.4758.102 Safari/537.36" etag="d21mQTtoO_wacHQVw6vy" version="16.4.7" type="github">
  <diagram id="lpaeBxaE7089oKboK2XH" name="atomic">
    <mxGraphModel dx="1191" dy="672" grid="1" gridSize="10" guides="1" tooltips="1" connect="1" arrows="1" fold="1" page="1" pageScale="1" pageWidth="827" pageHeight="2500" math="0" shadow="0">
      <root>
        <mxCell id="0" />
        <mxCell id="1" parent="0" />
        <mxCell id="pE9XB0Oec_px6ein9BKC-2" value="" style="shape=image;verticalLabelPosition=bottom;labelBackgroundColor=default;verticalAlign=top;aspect=fixed;imageAspect=0;image=data:image/png,iVBORw0KGgoAAAANSUhEUgAAAbAAAADsCAYAAAAVdfMSAAAMbmlDQ1BJQ0MgUHJvZmlsZQAASImVlwdYk1cXgO83kpCQhBEIQ0bYSxDZQ0YIK4KATMFFSAIJI8aEIOJGSxWsW0RxolURResApKiIWmdR3NZR1KJSqUUtiqLy3wzQ2n88/3me+9035557zrkn9xsXAJ1+nlSaj+oCUCAplCVGhbEmpGewSE8ACvSAETAFdjy+XMpOSIgFUIb6v8ubmwBR9tdclb7+Of5fRV8glPMBQCZBzhLI+QWQWwHAN/KlskIAiEq9zYxCqZLnQzaQwQQhr1Fyjpp3KzlLzS0qm+REDuQrAGhReTxZDgD0e1DPKuLnQD/0D5DdJQKxBACdkZCD+SKeALIy95EFBdOUXAXZEdpLIcN8gF/WFz5z/uY/a9g/j5czzOp1qUQrXCyX5vNm/p+l+d9SkK8YimEPG1Uki05Urh/W8HbetBglUyH3SLLi4pW1htwvFqjrDgBKESmiU9T2qBlfzoH1A0zI7gJeeAxkM8iRkvy4WI0+K1scyYUMdwtaLC7kJkM2hrxYKI9I0thslU1L1MRCG7JlHLZGf44nU8VVxnqgyEtha/y/Egm5Gv8YvUSUnAaZAtm2SJwaB5kO2U2elxSjsRlTIuLEDdnIFInK/G0hJwolUWFq/1hRtiwyUWNfXiAfWi+2VSTmxmn4YKEoOVpdH+w0n6fKH64FuyKUsFOG/AjlE2KH1iIQhkeo1449E0pSkjR++qWFYYnquThFmp+gscethflRSr01ZC95UZJmLp5aCDen2j+eLS1MSFbniZfk8sYmqPPBV4BYwAHhgAUUsGWBaSAXiNt7GnvgL/VIJOABGcgBQuCq0QzNSFONSOA1CZSAPyAJgXx4XphqVAiKoP7jsFZ9dQXZqtEi1Yw88ARyAYgB+fC3QjVLMhwtFfwGNeJ/ROfBxof55sOmHP/3+iHtZw0bamI1GsVQRJbOkCUxghhOjCZGEp1wUzwYD8Rj4TUUNg/cD/cfWsdne8ITQgfhEeEGoZNwZ6q4VPZVluNAJ/QfqalF1pe1wO2hT288DA+C3qFnnImbAlfcC8Zh4yEwsjfUcjR5K6vC+sr331bwxb+hsSO7k1GyETmU7Pj1TLoz3XvYi7LWX9ZHnWvWcL05wyNfx+d8UX0B7GO+tsQWY4ews9hJ7DzWgjUCFnYCa8IuYceUPLy7flPtrqFoiap88qAf8T/i8TQxlZWUu9e5d7t/UI8VCosLlTceZ5p0pkycIypkseHbQcjiSvhuI1ke7h4eACjfNerH12um6h2CMC981pUWARDkNDg42PJZF+sPwOEmePt3f9Y5wmcf3RKAc4v5ClmRWocrLwT4lNCBd5oJsAA2wBGuxwP4gEAQCiLAWBAPkkE6mAKrLIL7XAZmgNlgASgDFWAFWAs2gC1gO9gN9oGDoBG0gJPgJ3ARXAE3wF24e7rAc9AL3oABBEFICA1hICaIJWKHuCAeiB8SjEQgsUgiko5kIjmIBFEgs5GFSAWyCtmAbENqkR+Qo8hJ5DzSgdxBHiLdyCvkPYqhVNQANUft0VGoH8pGY9BkdDKag05HS9BF6DK0Cq1B96IN6En0InoD7USfo30YwLQxJmaFuWJ+GAeLxzKwbEyGzcXKsUqsBqvHmuH/fA3rxHqwdzgRZ+As3BXu4Gg8Befj0/G5+FJ8A74bb8BP49fwh3gv/olAI5gRXAgBBC5hAiGHMINQRqgk7CQcIZyB91IX4Q2RSGQSHYi+8F5MJ+YSZxGXEjcR9xNbiR3Ex8Q+EolkQnIhBZHiSTxSIamMtJ60l3SCdJXURerX0tay1PLQitTK0JJolWpVau3ROq51Veup1gBZl2xHDiDHkwXkmeTl5B3kZvJlchd5gKJHcaAEUZIpuZQFlCpKPeUM5R7ltba2trW2v/Z4bbH2fO0q7QPa57Qfar+j6lOdqRzqJKqCuoy6i9pKvUN9TaPR7GmhtAxaIW0ZrZZ2ivaA1k9n0N3oXLqAPo9eTW+gX6W/0CHr2OmwdabolOhU6hzSuazTo0vWtdfl6PJ05+pW6x7VvaXbp8fQG60Xr1egt1Rvj955vWf6JH17/Qh9gf4i/e36p/QfMzCGDYPD4DMWMnYwzjC6DIgGDgZcg1yDCoN9Bu0GvYb6hl6GqYbFhtWGxww7mRjTnsll5jOXMw8ybzLfG5kbsY2ERkuM6o2uGr01HmEcaiw0Ljfeb3zD+L0JyyTCJM9kpUmjyX1T3NTZdLzpDNPNpmdMe0YYjAgcwR9RPuLgiF/MUDNns0SzWWbbzS6Z9ZlbmEeZS83Xm58y77FgWoRa5FqssThu0W3JsAy2FFuusTxh+TvLkMVm5bOqWKdZvVZmVtFWCqttVu1WA9YO1inWpdb7re/bUGz8bLJt1ti02fTaWtqOs51tW2f7ix3Zzs9OZLfO7qzdW3sH+zT7b+0b7Z85GDtwHUoc6hzuOdIcQxynO9Y4XnciOvk55TltcrrijDp7O4ucq50vu6AuPi5il00uHSMJI/1HSkbWjLzlSnVluxa51rk+dGO6xbqVujW6vRhlOypj1MpRZ0d9cvd2z3ff4X53tP7osaNLRzePfuXh7MH3qPa47knzjPSc59nk+dLLxUvotdnrtjfDe5z3t95t3h99fH1kPvU+3b62vpm+G31v+Rn4Jfgt9TvnT/AP85/n3+L/LsAnoDDgYMCfga6BeYF7Ap+NcRgjHLNjzOMg6yBe0LagzmBWcGbw1uDOEKsQXkhNyKNQm1BB6M7Qp2wndi57L/tFmHuYLOxI2FtOAGcOpzUcC48KLw9vj9CPSInYEPEg0joyJ7IusjfKO2pWVGs0ITomemX0La45l8+t5faO9R07Z+zpGGpMUsyGmEexzrGy2OZx6Lix41aPuxdnFyeJa4wH8dz41fH3ExwSpif8OJ44PmF89fgniaMTZyeeTWIkTU3ak/QmOSx5efLdFMcURUpbqk7qpNTa1Ldp4Wmr0jonjJowZ8LFdNN0cXpTBikjNWNnRt/EiIlrJ3ZN8p5UNunmZIfJxZPPTzGdkj/l2FSdqbyphzIJmWmZezI/8OJ5Nby+LG7WxqxePoe/jv9cECpYI+gWBglXCZ9mB2Wvyn6WE5SzOqdbFCKqFPWIOeIN4pe50blbct/mxeftyhvMT8vfX6BVkFlwVKIvyZOcnmYxrXhah9RFWibtnB4wfe30XlmMbKcckU+WNxUawI/6SwpHxTeKh0XBRdVF/TNSZxwq1iuWFF+a6TxzycynJZEl38/CZ/Fntc22mr1g9sM57Dnb5iJzs+a2zbOZt2he1/yo+bsXUBbkLfi51L10VelfC9MWNi8yXzR/0eNvor6pK6OXycpufRv47ZbF+GLx4vYlnkvWL/lULii/UOFeUVnxYSl/6YXvRn9X9d3gsuxl7ct9lm9eQVwhWXFzZcjK3av0VpWserx63OqGNaw15Wv+Wjt17flKr8ot6yjrFOs6q2Krmtbbrl+x/sMG0YYb1WHV+zeabVyy8e0mwaarm0M3128x31Kx5f1W8dbb26K2NdTY11RuJ24v2v5kR+qOs9/7fV+703Rnxc6PuyS7Oncn7j5d61tbu8dsz/I6tE5R17130t4r+8L3NdW71m/bz9xfcQAcUBz4/YfMH24ejDnYdsjvUP1hu8MbjzCOlDcgDTMbehtFjZ1N6U0dR8cebWsObD7yo9uPu1qsWqqPGR5bfpxyfNHxwRMlJ/papa09J3NOPm6b2nb31IRT10+PP91+JubMuZ8ifzp1ln32xLmgcy3nA84fveB3ofGiz8WGS96Xjvzs/fORdp/2hsu+l5uu+F9p7hjTcfxqyNWT18Kv/XSde/3ijbgbHTdTbt6+NelW523B7Wd38u+8/KXol4G78+8R7pXf171f+cDsQc2vTr/u7/TpPPYw/OGlR0mP7j7mP37+m/y3D12LntCeVD61fFr7zONZS3dk95XfJ/7e9Vz6fKCn7A+9Pza+cHxx+M/QPy/1Tujteil7Ofhq6WuT17v+8vqrrS+h78GbgjcDb8v7Tfp3v/N7d/Z92vunAzM+kD5UfXT62Pwp5tO9wYLBQSlPxlN9CmCwodnZALzaBQAtHQAGPLdRJqrPgipB1OdXFYH/xOrzokp8AKiHnfIzntMKwAHY7GGjhQKg/IRPDgWop+dw04g829ND7YsKT0KE/sHB1+YAkJoB+CgbHBzYNDj4cQdM9g4ArdPVZ1ClEOGZYauXkq4yi+eDr0R9Pv1ijV/3QJmBavrf+n8BJB6OsxVpaCIAAACKZVhJZk1NACoAAAAIAAQBGgAFAAAAAQAAAD4BGwAFAAAAAQAAAEYBKAADAAAAAQACAACHaQAEAAAAAQAAAE4AAAAAAAAAkAAAAAEAAACQAAAAAQADkoYABwAAABIAAAB4oAIABAAAAAEAAAGwoAMABAAAAAEAAADsAAAAAEFTQ0lJAAAAU2NyZWVuc2hvdIYPLRwAAAAJcEhZcwAAFiUAABYlAUlSJPAAAAHWaVRYdFhNTDpjb20uYWRvYmUueG1wAAAAAAA8eDp4bXBtZXRhIHhtbG5zOng9ImFkb2JlOm5zOm1ldGEvIiB4OnhtcHRrPSJYTVAgQ29yZSA2LjAuMCI+CiAgIDxyZGY6UkRGIHhtbG5zOnJkZj0iaHR0cDovL3d3dy53My5vcmcvMTk5OS8wMi8yMi1yZGYtc3ludGF4LW5zIyI+CiAgICAgIDxyZGY6RGVzY3JpcHRpb24gcmRmOmFib3V0PSIiCiAgICAgICAgICAgIHhtbG5zOmV4aWY9Imh0dHA6Ly9ucy5hZG9iZS5jb20vZXhpZi8xLjAvIj4KICAgICAgICAgPGV4aWY6UGl4ZWxZRGltZW5zaW9uPjIzNjwvZXhpZjpQaXhlbFlEaW1lbnNpb24+CiAgICAgICAgIDxleGlmOlBpeGVsWERpbWVuc2lvbj40MzI8L2V4aWY6UGl4ZWxYRGltZW5zaW9uPgogICAgICAgICA8ZXhpZjpVc2VyQ29tbWVudD5TY3JlZW5zaG90PC9leGlmOlVzZXJDb21tZW50PgogICAgICA8L3JkZjpEZXNjcmlwdGlvbj4KICAgPC9yZGY6UkRGPgo8L3g6eG1wbWV0YT4Ka/ZhZgAAABxpRE9UAAAAAgAAAAAAAAB2AAAAKAAAAHYAAAB2AAAMHcIVQosAAAvpSURBVHgB7N1lqFTdF8fxZT4GBhaCiYiBGBgYKIotFopiob6w+4UBimJgIIKd2JiYqIiKAeYLQbHBVlTMyzVRrP//rg3nOLd99NlXZ53veXHn1Ox79mcN/Jgze/Zk+1/SIiwIIIAAAgjEmUA2AizOKsblIoAAAgg4AQKMFwICCCCAQFwKEGBxWTYuGgEEEECAAOM1gAACCCAQlwIEWFyWjYtGAAEEECDAeA0ggAACCMSlAAEWl2XjohFAAAEECDBeAwgggAACcSlAgMVl2bhoBBBAAAECjNcAAggggEBcChBgcVk2LhoBBBBAgADjNYAAAgggEJcCBFhclo2LRgABBBAgwHgNIIAAAgjEpQABFpdl46IRQAABBAgwXgMIIIAAAnEpQIDFZdm4aAQQQCB+BJou/uTlYgkwL6w0igACCCAQCBBggQSPCCCAAAJxJWAiwN68eRNX6FwsAggggMDvC3Ta+M/vN5JGC1l6C5EAS6MC7EIAAQSMC5gIMOM1onsIIIAAAlkokKXvwLKwX/wrBBBAAAHjAgSY8QLTPQQQQMCqAAFmtbL0CwEEEDAuQIAZLzDdQwABBKwKEGBWK0u/EEAAAeMCBJjxAtM9BBBAwKoAAWa1svQLAQQQMC5AgBkvMN1DAAEErAoQYFYrS78QQAAB4wIEmPEC0z0EEEDAqgABZrWy9AsBBBAwLkCAGS8w3UMAAQSsChBgVitLvxBAAAHjAgSY8QLTPQQQQMCqAAFmtbL0CwEEEDAuQIAZLzDdQwABBKwKEGBWK0u/EEAAAeMCBJjxAtM9BBBAwKoAAWa1svQLAQQQMC5AgBkvMN1DAAEErAoQYFYrS78QQAAB4wIEmPEC0z0EEEDAqgABZrWy9AsBBBAwLkCAGS8w3UMAAQSsChBgVitLvxBAAAHjAgSY8QLTPQQQQMCqAAFmtbL0CwEEEDAuQIAZLzDdQwABBKwKEGBWK0u/EEAAAeMCBJjxAtM9BBBAwKoAAWa1svQLAQQQMC5AgBkvMN1DAAEErAoQYFYrS78QQAAB4wIEmPEC0z0EEEDAqkCWB9j3798lISFB3r17J1+/frXqSr8QQAABBDwLZGmAaXg9fvxYPn365LlbNI8AAgggYF0gSwPs5cuXkpiYKHny5JESJUq4R+vA9A8BBBBAwI9AlgbYvXv33G3DsmXLEl5+6kmrCCCAQGQEsjTAbt265WArVaoUGWA6igACCCDgR4AA8+NKqwgggAACngUIMM/ANI8AAggg4EeAAPPjSqsIIIAAAp4FCDDPwDSPAAIIIOBHgADz40qrCCCAAAKeBQgwz8A0jwACCCDgR4AA8+NKqwgggAACngUIMM/ANI8AAggg4EeAAPPjSqsIIIAAAp4FCDDPwDSPAAIIIOBHgADz40qrCCCAAAKeBQgwz8A0jwACCCDgR4AA8+NKqwgggAACngUIMM/ANI8AAggg4EeAAPPjSqsIIIAAAp4FCDDPwDSPAAIIIOBHgADz40qrCCCAAAKeBQgwz8A0jwACCCDgR4AA8+NKqwgggAACngUIMM/ANI8AAggg4EeAAPPjSqsIIIAAAp4FzAfYokWL5OLFi45x9OjRUqdOHc+kv978/fv3Zdq0aa6B0qVLy6xZs369MZ6JAAIIGBcwH2DDhw+X48ePuzIuW7ZMWrZs+deW9Pr169K1a1d3fRUrVpSDBw/+tdfKhSGAAAJ/WoAA+9MViPn/BFgMBqsIIIBAJgIEWCZAWXmYAMtKbf4XAgjEu4DJAHv48KHs3LnT1ebw4cPy6NEjt96iRQupUKGCWy9QoIAMGTIkzfrduXNH9u7dK/r49OlTKVSokJQtW1ZatWolTZo0kRw5cqT5vGDn27dv5dy5c3Lt2jW5evWqfPjwQapWrSqVK1eWRo0ahdcQnL9t2zZ58uSJvHjxQvbt2+d258+fX3r37h2cIu3atZNq1aqF26wggAACURcwGWDnz5+Xvn37ZljbkiVLysmTJ5Od8/nzZ5k+fbrs2rUr2f7YDQ2hFStWSKlSpWJ3h+s3btyQYcOGybNnz8J9KVcmT54sffr0kezZs7tDeq16zRkt8+bNk06dOmV0CscQQACBSAmYDLCbN29Kr1693Duf9KpZvnx5OXLkSHj427dvMmjQIDl79my4L72VokWLyp49e0RDMHa5cOFCsndNekzfNX39+lX0mmKXUaNGyciRI92ucePGyYEDB2IPp1qfP3++tG/fPtV+diCAAAJRFTAZYLHF/NlRiBs2bJA5c+aETx06dKh06NBBdDTgq1ev3C3BCRMmhMf1duTy5cvDbV2ZOHGiCzZdb9y4scydO1eKFSumm/L69WtZvXq1rFmzxm3rLUINy7x587pt/cNnYCEFKwgggECmAgRYEtHHjx+lVq1aIdbAgQNl/Pjx4XawcuLECXd7MNjev3+/+1xLt798+SL169cP3/XpuSlvM+q7PL1Fqe/UdNFbiQ0bNnTr+ocACylYQQABBDIVIMCSiI4dOyYjRoxwWPoZlw7gSG+gxqRJk2T37t3uXP1idPC8lCF46NChVIM1MqsGAZaZEMcRQACBHwIEWJLF7NmzZePGjU5FB1ToO6P0lu3bt8vUqVPd4WbNmsmqVavCU7t16+ZGHeoO/ZxMw6558+aSL1++8JyMVgiwjHQ4hgACCCQXIMCSPMaMGSM63D5YYm8nBvuCx0uXLgWr7vah3kYMFm1D20q5NGjQwN1e1CH41atXT3k43CbAQgpWEEAAgUwFCLAkIh2xGMyXmKlYzAlpDcXXEJsxY4YkJCTEnPljVUc/9uvXz41WzJYt248DSWsEWDIONhBAAIEMBQiwJJ4BAwbImTNnQii9FZje8v37d7l9+7Z791W4cOE0B3voYA0dYaifg+l3zdIKMw3NKVOmJPusjQBLT539CCCAQGoBAizJJHb4+9ixY2Xw4MGppX5jj86ycfr0adm0aZOb3SNoau3atW64fbBNgAUSPCKAAAKZC0QqwJYuXeqmg0rJsnLlSlmwYIHb3aZNG1m8eHHKU/6Tbf1Cc+fOncMQ0++oxX5mRoD9J8w0ggACERGIVIDp72uldXvw1q1b0rFjx7DkOo9ijRo1wu3YFR3EEUxBVbNmTdGRiLroVFBXrlxx6/rl52C/2xHzZ8mSJaJBqoteS+xvfuk0VF26dHHH9IvOv/K5nHsyfxBAAIEICJgPMP3i8NatW10pNVQ0PHLlypWqtD169JBghKGGh34XrFy5csnO08l5dQCGTs6ri87cEfx+l36Gpp+lBcuWLVukbt26waZ7TExMlJ49e8qDBw/cts7sEfscncxXRyoGi1733/wDnMF18ogAAgj8CQHzAaafO82cOTO01XDSmd0rVaok/fv3D/frwAydOip20eH0Ont8zpw53czyOrtGsOi7LA253Llzu106uKN169bhzPe6U+curFevnhQpUkTu3r3rppEKwk+P64z1+n2xYNE2dNb62KV27dpulpDu3bv/6y9Gx7bDOgIIIGBNwHyA6U+btG3bNtVIwLSGwKd8F5VesXUo/ObNm6V48eLJTrl8+bLo7BwZzUSvT9DnL1q0SKpUqZLs+bqxbt06N4diygPMRp9ShG0EEIi6gPkA0wLrKECd/kln0QiGtKcVYHqu/pbY+vXrRX+jK+Wiz9HfENPbhnny5El52G2/f/9eFi5cKEePHk0VZBpcTZs2dQM39J1gWosOwdd3ejt27JBTp06FpxBgIQUrCCCAgBOIRIAFtdZw0HdkOs+hBlBw+y84Hvuovw32/PlzN4u8nl+mTBnRH8H8N4veLtRA1N/90s/TYmee/5l2dH5FvQ79wnPBggV/5imcgwACCERGIFIBFpmq0lEEEEAgAgIEWASKTBcRQAABiwIEmMWq0icEEEAgAgIEWASKTBcRQAABiwIEmMWq0icEEEAgAgIEWASKTBcRQAABiwIEmMWq0icEEEAgAgIEWASKTBcRQAABiwIEmMWq0icEEEAgAgIEWASKTBcRQAABiwIEmMWq0icEEEAgAgIEWASKTBcRQAABiwIEmMWq0icEEEAgAgL/BwAA//8VWBRzAAAhfklEQVTtXQW4JMW1PosuTpAFsrABQhYI7k4SLEBwd3cNrsHdnaAhOMFCgOAsEtwdFlhs0WWxhbDAsvPOX++detU13XP7zu25fWf6P993b9sp+6um/q6qU6f71VSkl2To0KEupcGDB/dSikyGCBABIkAEOhWBfiSwTq1alosIEAEi0NkIkMA6u35ZOiJABIhAxyJAAuvYqmXBiAARIAKdjQAJrLPrl6UjAkSACHQsAr1KYMOGDZMxY8bIoEGDpH///h0LKgtGBIgAESACrUegVwlsxIgR8uWXXzryGjBgAEms9fXLFIgAESACHYtArxLY2LFjZfjw4TJ69OiOBZQFIwJEgAgQgd5BoFcJDEUCiY0cOVJGjRrlphN7p5hMhQgQASJABDoNgV4nsE4DkOUhAkSACBCBchAggZWDO1MlAkSACBCBHiJAAushgAxOBIgAESAC5SBAAisHd6ZKBIgAESACPUSABNZDABmcCBABIkAEykGABFYO7kyVCBABIkAEeogACayHADI4ESACRIAIlIMACawc3JkqESACRIAI9BABElgPAWRwIkAEiAARKAcBElg5uDNVIkAEiAAR6CECJLAeAsjgRIAIEAEiUA4CJLBycGeqRIAIEAEi0EMEKk9gtVrNQ9ivXz9/zhMiQASIABHo2wiUQmA///xzU59UmWiiiWScccYpDFF8m2zxxRd38c0000xy7733FhY3IyICRIAIEIHWIlAKgR1yyCFyww03dLtk999/vwwcOLDb4bICkMCykOF9IkAEiEDfR6AUAjvwwAPl5ptv7jY6JLB8kN11111y9dVXO+WVVlpJNt1003wBS9I688wz5dlnn3Wp77HHHrLQQguVlBMmSwSIQDshUDqBTT311DLPPPPkwuzYY4+VaaaZJpduHqVOHYFdfvnlAqwgW221lRx00EF54ChNZ5dddpH77rvPpX/uuefKCiusUFpemDARIALtg0DpBHbiiSfKWmutVQpiJLBSYK9LlARWBwlvEAEikAMBElgHGnFwBJaj5VOFCBCBtkegYwjsnXfecetqb731lgwfPlymnXZamXfeeWXuueeWBRZYQKaaaqq6ykobgY0cOVKeeOIJeeaZZ+S5556TGWecURZccEGZb775XDx1kUQ3Ro8eLffcc488+uijLh9ffPGF/PKXv5RBgwbJKqus4tZ3WmGuD8vO008/3eXmhRdekCeffNKdzzXXXLLkkkv6XG6//fYyxRRT+Gs7QT5vvPFGefnll+WDDz6Q8ccfX2CZueiii8rqq68usABtJEj/kUceceERB+pgttlmkznmmEPmn39+F08Y/r333pPrr7/e3brzzjtdmrhYfvnlZdZZZ3X3J5tsMtlxxx3dOf8RASJABGIE2p7AfvjhBznyyCNd5xsXzq4nmWQSufDCC2XhhRe2W+4YE9hVV10la6+9toDE0gRTXXvuuWfaI3fv8ccfF+h89913mTrozM8++2wZMGBAqg5I85prrnHWljC+yLvmN2bMGAFZdSVphjAo91FHHZUZFPhhbWqJJZZI1QH57bvvvo7AUhX05nrrrSewPp144omdCgh28803z1J396effnp58MEHG+rwIREgAtVFoK0JDJ32lltuKU8//XSiBtHhQmIiidfbQgJDmBlmmEEwgjPBvTiOAw44QLbZZhtT8UfsIdt11139tZ2kxQHDFVhhTjfddKbmjt9++23CAm/NNdeUk046KaGTdYER0DLLLJNJvhZuyJAhbkRo1yCms846yy4bHi+++GKXRqj01VdfyaqrrppId+aZZ3YjXrMsNH2MZEHOkDfeeEM23njjOnxNF0fEA4tKChEgAkQgFQH1RNHroiRQGzx4sPvTjrzp9M877zwfD+I79NBDa9pp1pTYXJxDhw6tbbHFFl5HpxJrSkg+PR05+GeWnx122KH2yiuv+DiGDRtW22ijjRJ6Fr9FNGLEiBritjh0Gqx222231XB/7NixNSXF2qWXXuqfQw/pxKJEnNDREU+skuv673//u4/nuOOOywzz4osvej3kaeedd3b4/fTTTzUl09rDDz9cUzN8r4P8jBo1KhGfTjv65yi3Th/6599//73DwXDBEWnGgnRNR6df48e8JgJEgAikIlD6CAxv5XjT7kqWWmopWW211bxaPFpZeeWV5YwzzpB4fenrr792a082LXjMMcfI+uuv7+IJR2C4gSlGjDLi9R6EDdeR/v3vf8uvf/1rnxfsY1Iy9de33nqraIfsr+3kiiuuEKRvct1117n1IbvGKGq55ZaTTz75xN3C+s/ee+9tj3Mf8xpxYPSKaU8I6uGyyy6TCSecMJHO+++/76xEbSR62GGHJfaVIY8PPPCAC3PyySfLGmuskQiPC5QbI05M92JUqeSd0KEVYgIOXhABIpATgdIJLGc+3bQdpu9Mbr/9dt+5Y60EpGJTh6Zjx4ceekh0VOIusY6z3XbbufOYwKBjrqUsrB33339/ueWWW9zlqaeemiBT7FuC4QME+6+w3pMlYWeNfOy3334JVR3huGkzlAmk2YzrrDwEFpMyDDCy1ttQbpQfApLHmpkJpgFtqjB8ObDneY4hJtwHlgcx6hABIgAE2obA0MmFBhRHH320XHnlla4W1113XdGpsm7XaExgTz31lEw++eSp8ZxzzjnO+AIP99prL9lpp52c3meffZZYF4rXmOLIsAZ0xBFHuNvYwN2MS604zvg6D4Hdfffdsvvuu7ugXa01vfnmmwnCfv311/1I97TTTpMLLrjAZwHGHBhlZRmpeMXghAQWgMFTIkAEciNQOoFhBJJnIzNMv2HabbLbbrs5c3Vcw7pN17rsUe5jSGAwrIDpe5aElnohgaEzR4dt8tprrzUcNYEkN9tsM6feVZoWZ3ePeQgMrqZgvWkC68gs0bUsZ3Rhz0Oi1zVCN+K0KUbTgUXkYost5iwXMZIcb7zx7FHdkQRWBwlvEAEikAOB0gkstgzMkWenEk5dXXTRRbLsssvmDer1QgLryht9FoE99thjzl0TIs0zoopHbLDGK1ryEFg4ouxu+nD7hP1xJhih/fnPf05YcNozHDG1i/pSYw2ZdNJJw0funARWBwlvEAEikAOBtiUwbMjF2hbk+OOPl3XWWSdHcZMqRRDY888/LxtuuKGLOM++JbWMdBuDEQAdu60fJXPWs6s8BAbSP+WUU3xCjdbtoISR5Zxzzun099lnn9SN4Wq9KWp96eol3I5giYDgL7nkkrqN1CQwQ4hHIkAEuoVAqm1ii28WYUZ/8MEHe9PrRqbijYoSmtHDBLyR6HqbT+/888/3qupRwt+HKfg333zjn6Wd3HHHHV4fJuqtkDxm9KH5+9Zbb114NnR/WE09bLjtAmYij6NaitalRTP6Okh4gwgQgRwISA6dwlWKIDB9k/dEgH1ajQR7mtTDhdvj9OGHH3rVIghMXUf5fKCDRjqNBB24dej66ZBGqk0/CwlMrSJT4wn3nGEPG/artUoOP/xwX+YNNtigLpmQwNS4pO45bxABIkAE0hBoWwJ79913facIQsCIIkt0ysvrqsskr1YEgSEyNerw8aOD1v1OPo3w5O233/Z6yDM2O6cJNlvHm6XT9LLu6RSiT0etAlPVEH+4+RojzCzBhmwQL/5CPYw+dSrS/alRSCYJqnGMz4+uVdYlExKY+kese84bRIAIEIE0BNqWwFAYdenkO0YQgq5H1ZVRzdQTOiARk6IILOygkQ+MOGIC0g3VCa8WII/YqwXypa6jXH7R0cMTRjMSTlMiHV3rS40mHA0i3+q2qU7v008/rW2yySYeQ/0YqddBmRDO/tSc3j+zE3j1UEtTr6N73+yRP+q2Av8cHkp+/PFH/4wnRIAIEIEsBEo34oD1HzzHdyUww8Ym13CfFjyew3t5KLPPPru7Bx99SgB+gzF0oBt6zCjCiMPS1jW5hENhGGggPVjrwTs8NgqHAivAFVdcMbwl8KgPjyImeawaTTc8vvrqq84pcXgPaWG/F/w1mqcRmMfD07xtwoY+dOBTEX4aYSJ/0003hdEIPMfPMsss/h72tJl/Q9xceuml3WZw6Oh0rdv8DeMOkzR/irGHEmAHz/1KjM7XpYXlkQgQASIQIlA6gYWZ6eo8zZM6vLdvu+22DZ3CIl4QAzY7o3M0KZLAQAb48rGOfiz6zCM6fZiVxwLCQMdtgr1UMYHYs66OoYunUDfGEK6iYNGpU7KhWuo5iAoup0LR6UXnid5cUoXP4nO43AoJ2p6r4Yu7b+6+7H4eq07T5ZEIEIHqIVAKgWHjcTMeKOLO16rr448/dn784MsvFmzQhbd0bHSO/SSi41xkkUVcEHy7Cu6psiRrH1ior8NcgR9EmLG/9NJL4SN3DnKCJ3t8pyxLQLJwaYVNzieccEJT+9sQN1xSwaQdpBPuNUvDEDigfBgJxSQCwgfZqqVipqspNQBx4a+99tq6vWAoBzCG6T2+iZYlGK3he2SIw/JAAstCi/eJABEAAqUQWKug1/UW0TUbwfQhnNLiw4jjjjtuq5JrGC/ygLzgA5eY9kRnbFN3DQPqQ4zm4HWkkfeKruIIn4OgQDLApFEe4Ez4888/F2y2hg9GTCOCgGLiD+OOz1EH+FglHPcOHDhQppxyylil4TXygPyi3vr37y8TTDBBQ30+JAJEoLoIdBSBVbcaWXIiQASIQPUQIIFVr85ZYiJABIhARyBAAuuIamQhiAARIALVQ4AEVr06Z4mJABEgAh2BAAmsI6qRhSACRIAIVA8BElj16pwlJgJEgAh0BAIksI6oRhaCCBABIlA9BEhg1atzlpgIEAEi0BEIkMA6ohpZCCJABIhA9RAggVWvzlliIkAEiEBHIEAC64hqZCGIABEgAtVDgARWvTpniYkAESACHYEACawjqpGFIAJEgAhUDwESWPXqnCUmAkSACHQEAiSwjqhGFoIIEAEiUD0ESGDVq3OWmAgQASLQEQiQwDqiGlkIIkAEiED1ECCBVa/OWWIiQASIQEcgQALriGpkIYgAESAC1UOABFa9OmeJiQARIAIdgQAJrCOqkYUgAkSACFQPARJY9eqcJSYCRIAIdAQCJLCOqEYWgggQASJQPQRIYNWrc5aYCBABItARCHQUgdVqNV8p/fr18+c8IQJEgAgQgc5DoM8Q2NixY+WVV16RDz74QD766CP57rvvZJppppEZZphBFl10UZl00kkbon/ffffJLrvs4nQ23nhjOeKIIxrq82HnI9DTNtX5CPWNEv73v/+V8OWzf//+Mu644/aNzDEXfRqB0glszJgxcsstt8iFF14o7777biZY66yzjhx88MEy2WSTpeqQwFJhqeTNotpUJcHr5UI/+eSTsvnmmydSPf3002XVVVdN3OMFEUhDoFQC+/bbb2XPPfeU//znP2l5q7s388wzy/nnny+zzjpr3TMSWB0k3b5x5plnyrPPPuvC7bHHHrLQQgt1O46yAxTZpsouS6vSf+edd/wMxYwzzijHHntsq5JqGO/3338vq6++upt1CRVJYCEaPG+EQGkEhsa76aabumnDMINbbbWVzD777DLBBBPIa6+95jpU61RN76KLLpJll13WLt2RBJaAo6kLTMECR8i5554rK6ywQlPxlBWo6DZVVjlanS6m6jGjAZltttnk9ttvb3WSqfGfdtppcsEFF9Q9I4HVQcIbGQiURmCnnnqqmza0fK255ppy6KGHyuSTT263/BE/sL333ttf4wSjtmmnndbfI4F5KJo+aXcCK7pNNQ1kHw/YFwjsjTfekDXWWMMjtfjii8vjjz/urklgHhaedIFAKQT25ptvymqrreazhrfBY445puHC7dtvv52YF99ss83kL3/5i4+DBOahaPqknQmsFW2qaSD7eMCyCeznn3+WDTfcUF566SWH1EEHHSTvvfeeXH311e6aBNbHG1Afyl4pBHbyySfLxRdf7GCYZJJJ5MEHH8w0zgixisM9/fTTMs444ziVNALDXD8WiZ966ikZOnSozD333LLgggu6tZ1ZZpkljDr1HOFeeOEFwdsiCHTqqad2ccwxxxyy2GKLyZRTTpkaDtNvmM5C3jBy/Pjjj+XRRx+Vxx57zE2L/uY3v5EzzjijLmyz6YURocw333yzvPXWWzJ8+HA3Sp133nldvhdYYAGZaqqpQnXXcVx//fXu3p133unXI5Zffnm/1gjDmR133DERzi6QjqWHck4xxRQyaNAgWXHFFWWZZZbJfCn517/+5eoE8WAqGVamwOeJJ55w9YUp5EsuucTFZ2k1OsZto4g2FaYHKzm0JWD0/vvvyyeffOKwxBrS7373O1luueXctHcYxs4R5uWXX3aXmGlA/WcJptRGjRol448/vlsfDvVizDADgd/AM88840YvP/74o5sSRDtfd9116/JzzTXXyIcffiifffaZM5xC3Pj9bbLJJj6ZVVZZReaaay5/3YoTENWRRx7pokZaaH94gSWBtQLtzo6z1wkMHcHvf/971wEA2kMOOUS22GKLXCh//vnnsuWWWwqszCCXXnqpDBw40J3HBPbHP/5RsJ6WJWnraKb7zTffuB8UrCOzZPrpp5e//e1vvpMP9bCGZzJkyBA32sS2ABMYo9x11112KT1NDxH98MMPrlO48cYbfbzxCTorWHsuvPDC/lGaFZh/+H8nKCsIIRR0luiEbrjhhvB24hw4wOjG6ih8uP3228tDDz3kbqHjOuWUU7wBienF08R2Pz62qk1ZOuj0d99997r1WnuOI15u8OKCl4RY0MYNp7/+9a/yhz/8IVZx1zD7n3POOf0zvDiFEmL2j3/8Q6666ipPRKEeztHGzj77bBk8eLB/BGs/1HcjwYtAOLWHl6ArrrhCYByD8Hh564mAPPFiY3LTTTc5wkRbIoEZKjzmRaDXCSyeCrz77rvlV7/6Vd78ZuqFBDbPPPP46QkEQMcdEohFgh9MbGmH6Q2Y8MYm/eigRo8enYgH8eKtNiQsxB1e4w0TUzahhAvnRaQHQgex4208FOQPEpf9xBNPlLXWWss9QyeJfXOxjnv4f/9iwkWe0Zk+8sgjoVrqOXBDJwUSDCXsjNMwgi5GZPGIMYzDzlvVphA/RlvAKsYnq01h1Lj00ktb1tyxFQQWrhkhEeA8cuTIRLpoZxi12Z6qfffdV2699daETnwBw4o//elP/nZIekjj4Ycf9vF5pW6cYEbCjEa22WYbOeCAA1xoElg3QKTq/yOgb6+9Ktrp1fSt0P2pJWFhad97770+XotfF/VrOrfu0tBOt6Y/vtoSSyzh9Xbaaae69O+44w7/HPHoiKY2YsQIr/fcc8/VVlppJa+jb6z+mZ1Y+nbU6biajuZqw4YNqykJ1nTEZaq1ItI777zzfH6QphrD1NRys6bE5tLR6dOajnK9jo4Satoh+zzYyc477+x17rnnHrtdd9SRp9dDetrp1ZCGjiBq+oZd++c//5l4jnhj2W677RI6iAfx6lRbTTe21r766qs4SOZ1q9oU2oyutSbyeeWVV7p6RGY+/fTTmhJEok2hfX399deJvOr+RR/H/fffn3gWXiA9azM4xhJjhnocMmRITaccnSrqVEeyiTjQfmMBxpaOvqzFj/21juq9nunri51/3t0T/P4sHuCkozofhToe8M+U4Px9nhCBRghgB3yvCn7w1ojRORQlMYGlEQvS0qkwnz46gFhOOumkGn7U+NNpmvixu9bFZx/H2muvXadj5cMR8aBTz5KepofOK0xP9285IonTAyGE5J1WtjwEBnIJ00P+00RHxAm9119/PaEWdsaoBxBus9KqNhUSI8qcRgbIs66TJsqq09OJorSKwHRkn0jHLnbddVefn8MPP9xu+2NeAkMAHSH5uHRdzcfR3RO8uOFFztqOTqEnoiCBJeDgRU4Eep3ALrvsMt+IdRNzzmx2rRYTGDraLAk7cl3fyFLLvB+/Kcdp2Y8UR4yweiqN0rvttts8nhjRhm+1cbogb522cX9xJwvdPASGkZmVTzeh+lFenBau1brM655zzjkJlZDAjjrqqMSz7l60qk2h87ey6vRbw2yFeYhfalpBYGqBm5mf8CUt7SWxOwSGUTx+W5hBiNt5ZgZSHujan8cSdR8LCSxGhNd5EOhIAos7kBiIjTbayP+YdN0ofpzrOiTBeMrIOj0cw+nHXBFnKGWlh87f0gNh9ETyEJh6bfDpHX300Q2T0/VBr7vDDjskdEMCi9/GE4o5LkLyKPKlKJwqxiivkWAK1eoBx/BFohUEppZ7mdnRLQU+LyhDLN0hsDhsM9d4SQyxSZuGJIE1gyzD9LoRh44YZJ999nGLcHDSCwunIiQ04oAJ8XHHHZcZ7W677SY6knDP0ww58ACWgc8//7yz2oKDYZg26zScu//FF18kFvVh/h5uwA6NOGJLsqxMNZteWJbuWHSm5SPPPjC4/oJZuMn8889vp3VH4GcCTJQE7NIZgZgVIiz0YHjTrLSqTYX1iK0Cv/3tbzOzCKvMsAxoX9hOAGmFEcd1110nWdjrS5M3JIkNcJCf3t4HFrYZnd4UuCmLhUYcMSK8zoNArxMY9kNtvfXWLm+wasJ1ERISWFfe6MNOP43AsC8FXkHySk8JrCfpoazmaqvR1oA8ZclDYGF6eeI0ndgUP7RC7CmBtaJNweJ0vvnms+w7jM2q09+MTuB6Cy87EJi5W/hWEFgjzPoSgcG7BixkIfi943c60UQTuevwHwksRIPneRHodQLDRtuVV17Z5w9v83k2FfsAGSdFEdgJJ5zg9neFycAcGW/T2KSLkRb+sMfGpCcE1tP0QiI4/vjjvY87y1t3jnkIbNttt004X15vvfUyk8C+JnjIwEgGm773228/rxvmu1Fn7AM0OGlFm4r3ZKn1YOp+tjBb2CRv5vYwV9dpM/e4ygQGk3xsdodgvyc2SqcJHBvgNwzBKA3bBCAY1aYRnnvIf5VHoNcJDIiHb6ro1HQ9JFdFqDGD27ipM79OH/GAVCBFEFj81q1m9m6qK+1bZEsuuaTfd9MsgRWRXtg5YuM23PI0K3kIDPFjXxcEU8G6ttVUckUSGDLQijYV1nFXo9t4gy72yOF7dpCwjs466yzBJvs0wTTyIoss4h/F0895MetLI7BwGtYXrBsn8b60bgSlahUQKGMZEPuzbFEXJtRffvllrmzoOoQPFy+Uh1aIaabDYQKhmXFoxKFTUT5+da8TBkmcY2+Z5R/HRkYciYDRRRHp6cZZnxcYpzQSGBZgHxtM1tOsL0MjDt1gnhqVetbw6al3ilSdPDdDI44XX3wxT5CGOq1oUzrV7cuaZrUZZijc44Q2bXvwoKPrsT6eyy+/PAyWOA+NK9CuYsmLGbZtWPss24jD8tHsEVa2FCKQhUApIzA47tQfln8/wJQiPImPN954/l58AiMKvLmatwH4noObIpMiRmBww6QWYy5KTHWk+SvEQ7iwgjcLk2ZHYEWkF2PZaBox9MQQO0NGWcIRGL4RlTY9CJ+S+IaTCdbv4GsxTWDEYS6osB4EF2ImeUcTpt/VMcahiDYFQ4nDDjvMJY31L0wLprnFgt9LOKe1EVO8BosRq42MG7UrteoU3Sjti2rx2Y28mHU1Anv11VdFLXV9uWwN1dKJjz/99JNz39bMVB6mBrXziaOsu9btJt5jDTyZ2BQi2kwj35F1EfFGtRDIYrZW31e/cf4tEW9nePuHZ4M0UZdCNexxCt/i4k2cRYzA4CnD0sBbNK5j0U7N65husyOwotLD3i7LC45KHHG2a7rOlNBR90t1OqEpM8ze1bKuTgc3NthgAx8XcEozi8ZmbzyzfMWbgPOOJlIzkHGz6DalL0uJMmB7Rmgej2xgpKXT4L6cafijrRoOOIajfisKvE+EOjiPJS9mXY3A8DsL00rLj6WNEZDVo5KR3S78GO65oyeOwuHt2AhLGYHhFQHOZ7FmE7/9wQQeDkP79+/vPMDrtEqdjz+MksyyyV43ihiBIS54FoencRN8OHOppZYSOBKG1+84v9BrdgSGsEWkB4er8B4fCtYecA+m//BfZ9Zx0MF9dT8VqrtzbGmAV3ATjDowYtDOLoF3/OkS6MOkG2tGGEWjzmD0YAIjGJihw8O8Sd7RhOnnORbdppAmHDrvv//+ieTRJuDxHaO+Bx54wBtuQAnt0kbxFgj5ggNfmz3AfbRz1BFmFtB+7FtYFgbHVo3AYgMVpAUDFNTh+uuv7x1UY80ZjnfDfMMZsK07I1xRoi9Pzq8o4uPnVIpCtfPjKY3AAC2MGODMM9xX1AhymOFiWg/7x2IpisBAUPqmm+iU4rTwHTIs6hvR9YTAikgP+dO1LYGFoFnBxXm2a0ytYY9cmkk4jAjwPOywEC42gcc9eIpHel0J9iFhWiz8+CjCtILAEG+RbQrxQeCgV11m/e9Fg//4rh3MwUOiNnVMveoaZcP6QSeOP5NWERjij6fBLc3QG30agYFof/GLX5h6YUcSWGFQViqiUgkMSONHotN/7gcVbnyNawEjAezNMsuu+DnehO2bVWlvwaF+V/vA8GatHi4S5uIIj874wAMPdG/TWI/TqTMXbRaBgSTSRmwuUPCvp+lZVPgel3qlcH92z454u1a/jM6UuV+/fna77ohPh2Bt7tprr/VElkZgCIh8qwNe/+YcRoYwqA906hhNx6JTxn6Uhg3OPbVWC+Mvqk2FcaIe0enbBvjwGUYvaHMg/0aC9o11W7SX8EUDWMFSESPjcLN0TGB5MetqDQx5BEYYJWO/mm0ox/2QwHCNugG5IL977bWXwDK3FRKu/2F2IJ5RaEWajLP9ESidwEIIsZ8HU10fffSRWzSeeOKJZcCAAe4bS2kjhjBsK87xI9d1KvctpJlmmimTPItKu6j0sOiu6xxu+nDCCSd0U0L2SY28eUVeMCJDOBBQ2qjC4oIXCksP+sAKH8HsC1J0m1J/gG7kjak/4ALy6e6UGrBFvjC1ON1007W8XXVVDzBCQR3ixSb0KGPhkE9dREl9ETEdHolAGQj0KQIrAwCmSQSIABEgAu2JAAmsPeuNuSYCRIAIVB4BEljlmwABIAJEgAi0JwIksPasN+aaCBABIlB5BEhglW8CBIAIEAEi0J4IkMDas96YayJABIhA5REggVW+CRAAIkAEiEB7IkACa896Y66JABEgApVHgARW+SZAAIgAESAC7YkACaw96425JgJEgAhUHgESWOWbAAEgAkSACLQnAiSw9qw35poIEAEiUHkESGCVbwIEgAgQASLQngiQwNqz3phrIkAEiEDlESCBVb4JEAAiQASIQHsiQAJrz3pjrokAESAClUeABFb5JkAAiAARIALtiQAJrD3rjbkmAkSACFQeARJY5ZsAASACRIAItCcCJLD2rDfmmggQASJQeQRIYJVvAgSACBABItCeCJDA2rPemGsiQASIQOURIIFVvgkQACJABIhAeyLwP049+/nan1tPAAAAAElFTkSuQmCC;fillOpacity=60;overflow=hidden;" vertex="1" parent="1">
          <mxGeometry x="130" y="320" width="352" height="192.29" as="geometry" />
        </mxCell>
        <mxCell id="pE9XB0Oec_px6ein9BKC-5" style="edgeStyle=orthogonalEdgeStyle;rounded=0;orthogonalLoop=1;jettySize=auto;html=1;entryX=0;entryY=0.5;entryDx=0;entryDy=0;" edge="1" parent="1" source="pE9XB0Oec_px6ein9BKC-3" target="pE9XB0Oec_px6ein9BKC-4">
          <mxGeometry relative="1" as="geometry" />
        </mxCell>
        <mxCell id="pE9XB0Oec_px6ein9BKC-27" value="get" style="edgeLabel;html=1;align=center;verticalAlign=middle;resizable=0;points=[];fontSize=18;" vertex="1" connectable="0" parent="pE9XB0Oec_px6ein9BKC-5">
          <mxGeometry x="-0.0711" y="-1" relative="1" as="geometry">
            <mxPoint as="offset" />
          </mxGeometry>
        </mxCell>
        <mxCell id="pE9XB0Oec_px6ein9BKC-3" value="Text Atom" style="rounded=0;whiteSpace=wrap;html=1;" vertex="1" parent="1">
          <mxGeometry x="150" y="120" width="120" height="60" as="geometry" />
        </mxCell>
        <mxCell id="pE9XB0Oec_px6ein9BKC-4" value="CharCount Atom" style="rounded=0;whiteSpace=wrap;html=1;" vertex="1" parent="1">
          <mxGeometry x="370" y="120" width="120" height="60" as="geometry" />
        </mxCell>
        <mxCell id="pE9XB0Oec_px6ein9BKC-15" value="" style="endArrow=classic;html=1;rounded=0;fontSize=18;endFill=1;shadow=0;strokeColor=default;edgeStyle=orthogonalEdgeStyle;exitX=0.5;exitY=1;exitDx=0;exitDy=0;" edge="1" parent="1" source="pE9XB0Oec_px6ein9BKC-4">
          <mxGeometry width="50" height="50" relative="1" as="geometry">
            <mxPoint x="430" y="430" as="sourcePoint" />
            <mxPoint x="380" y="480" as="targetPoint" />
            <Array as="points">
              <mxPoint x="430" y="480" />
            </Array>
          </mxGeometry>
        </mxCell>
        <mxCell id="pE9XB0Oec_px6ein9BKC-16" value="get" style="edgeLabel;html=1;align=center;verticalAlign=middle;resizable=0;points=[];fontSize=18;" vertex="1" connectable="0" parent="pE9XB0Oec_px6ein9BKC-15">
          <mxGeometry x="-0.5521" y="2" relative="1" as="geometry">
            <mxPoint as="offset" />
          </mxGeometry>
        </mxCell>
        <mxCell id="pE9XB0Oec_px6ein9BKC-19" value="" style="endArrow=classic;html=1;rounded=0;shadow=0;fontSize=18;strokeColor=default;entryX=0;entryY=0.5;entryDx=0;entryDy=0;edgeStyle=orthogonalEdgeStyle;" edge="1" parent="1" target="pE9XB0Oec_px6ein9BKC-3">
          <mxGeometry width="50" height="50" relative="1" as="geometry">
            <mxPoint x="160" y="400" as="sourcePoint" />
            <mxPoint x="210" y="350" as="targetPoint" />
            <Array as="points">
              <mxPoint x="120" y="400" />
              <mxPoint x="120" y="150" />
            </Array>
          </mxGeometry>
        </mxCell>
        <mxCell id="pE9XB0Oec_px6ein9BKC-20" value="set" style="edgeLabel;html=1;align=center;verticalAlign=middle;resizable=0;points=[];fontSize=18;" vertex="1" connectable="0" parent="pE9XB0Oec_px6ein9BKC-19">
          <mxGeometry x="0.2244" y="-3" relative="1" as="geometry">
            <mxPoint as="offset" />
          </mxGeometry>
        </mxCell>
        <mxCell id="pE9XB0Oec_px6ein9BKC-25" value="" style="endArrow=classic;html=1;rounded=0;shadow=0;fontSize=18;strokeColor=default;exitX=0.5;exitY=1;exitDx=0;exitDy=0;edgeStyle=orthogonalEdgeStyle;" edge="1" parent="1" source="pE9XB0Oec_px6ein9BKC-3">
          <mxGeometry width="50" height="50" relative="1" as="geometry">
            <mxPoint x="331" y="400" as="sourcePoint" />
            <mxPoint x="281" y="450" as="targetPoint" />
            <Array as="points">
              <mxPoint x="210" y="315" />
              <mxPoint x="281" y="315" />
            </Array>
          </mxGeometry>
        </mxCell>
        <mxCell id="pE9XB0Oec_px6ein9BKC-26" value="get" style="edgeLabel;html=1;align=center;verticalAlign=middle;resizable=0;points=[];fontSize=18;" vertex="1" connectable="0" parent="pE9XB0Oec_px6ein9BKC-25">
          <mxGeometry x="-0.4955" y="1" relative="1" as="geometry">
            <mxPoint as="offset" />
          </mxGeometry>
        </mxCell>
      </root>
    </mxGraphModel>
  </diagram>
</mxfile>
